<svg xmlns="http://www.w3.org/2000/svg" width="11.78" height="14.055" viewBox="0 0 11.78 14.055">
    <defs>
        <style>
            .cls-1{fill:none;stroke:#000;stroke-linecap:round;stroke-linejoin:round}
        </style>
    </defs>
    <g id="Group_11079" transform="translate(-306.5 -300.044)">
        <g id="Icon_feather-lock" transform="translate(307 300.544)">
            <path id="Path_10766" d="M4.2 11h8.384a1.216 1.216 0 0 1 1.2 1.233v4.316a1.216 1.216 0 0 1-1.2 1.233H4.2A1.216 1.216 0 0 1 3 16.549v-4.316A1.216 1.216 0 0 1 4.2 11z" class="cls-1" transform="translate(-3 -4.727)"/>
            <path id="Path_10767" d="M7 7.549V5.083A3.006 3.006 0 0 1 9.924 2a3.006 3.006 0 0 1 2.924 3.083v2.466" class="cls-1" transform="translate(-4.534 -2)"/>
        </g>
        <g id="Group_11078" transform="translate(311.1 308.173)">
            <g id="Group_11077">
                <path id="Path_10769" d="M155.338 233.312a1.362 1.362 0 1 0-1.685 1.688v1.058a.378.378 0 0 0 .756 0V235a1.358 1.358 0 0 0 .929-1.688zm-1.307.982a.608.608 0 1 1 .608-.608.608.608 0 0 1-.608.608z" transform="translate(-152.667 -232.326)"/>
            </g>
        </g>
    </g>
</svg>
