<svg xmlns="http://www.w3.org/2000/svg" width="14.687" height="14.687" viewBox="0 0 14.687 14.687">
    <defs>
        <style>
            .cls-2{fill:none;stroke:#000;stroke-linecap:round;stroke-linejoin:round}
        </style>
    </defs>
    <g id="Icon_feather-eye-off" opacity="0.6" transform="translate(-.293 -.293)">
        <path id="Path_10974" d="M11.22 12.41a6.075 6.075 0 0 1-3.584 1.243C3.413 13.653 1 8.826 1 8.826a11.131 11.131 0 0 1 3.053-3.583m2.317-1.1A5.5 5.5 0 0 1 7.636 4c4.223 0 6.636 4.826 6.636 4.826a11.161 11.161 0 0 1-1.3 1.925m-4.054-.646a1.81 1.81 0 1 1-2.561-2.558" class="cls-2" transform="translate(0 -1.19)"/>
        <path id="Path_10975" d="M1 1l13.272 13.272" class="cls-2"/>
    </g>
</svg>
