<svg xmlns="http://www.w3.org/2000/svg" width="34.345" height="34.345" viewBox="0 0 34.345 34.345">
    <g>
        <path fill="none" stroke="#fff" stroke-linecap="round" stroke-linejoin="round" stroke-width="2px" d="M35.345 18.274a15.059 15.059 0 0 1-1.617 6.826 15.274 15.274 0 0 1-13.657 8.446 15.059 15.059 0 0 1-6.828-1.617L3 35.345 6.414 25.1A15.059 15.059 0 0 1 4.8 18.274a15.274 15.274 0 0 1 8.443-13.657A15.059 15.059 0 0 1 20.071 3h.9a15.238 15.238 0 0 1 14.374 14.376z" transform="translate(1 1) translate(-3 -3)"/>
        <path fill="#fff" d="M7.7 18.544l7.884-7.821 3.379 3.66 6.913-3.847-7.915 8.008L14.58 14.7z" transform="translate(1 1) translate(1.102 1.024)"/>
    </g>
</svg>
