<svg xmlns="http://www.w3.org/2000/svg" width="34.39" height="34.455" viewBox="0 0 34.39 34.455">
    <path fill="none" stroke="#fff" stroke-linecap="round" stroke-linejoin="round" stroke-width="2px" d="M34.5 26.3v4.885a3.257 3.257 0 0 1-3.55 3.257 32.227 32.227 0 0 1-14.053-5 31.754 31.754 0 0 1-9.771-9.771 32.227 32.227 0 0 1-5-14.119A3.257 3.257 0 0 1 5.366 2h4.885a3.257 3.257 0 0 1 3.257 2.8 20.909 20.909 0 0 0 1.14 4.576 3.257 3.257 0 0 1-.733 3.436l-2.068 2.068a26.055 26.055 0 0 0 9.771 9.771l2.068-2.068a3.257 3.257 0 0 1 3.436-.733 20.909 20.909 0 0 0 4.576 1.14A3.257 3.257 0 0 1 34.5 26.3z" transform="translate(-1.11 -1)"/>
</svg>
