<svg xmlns="http://www.w3.org/2000/svg" width="23.001" height="16.46" viewBox="0 0 23.001 16.46">
    <defs>
        <style>
            .cls-1{fill:none;stroke:#fff;stroke-linecap:round;stroke-linejoin:round}
        </style>
    </defs>
    <g id="Icon_feather-youtube" transform="translate(-.499 -3.5)">
        <path id="Path_4860" d="M22.54 6.42a2.78 2.78 0 0 0-1.94-2C18.88 4 12 4 12 4s-6.88 0-8.6.46a2.78 2.78 0 0 0-1.94 2A29 29 0 0 0 1 11.75a29 29 0 0 0 .46 5.33A2.78 2.78 0 0 0 3.4 19c1.72.46 8.6.46 8.6.46s6.88 0 8.6-.46a2.78 2.78 0 0 0 1.94-2 29 29 0 0 0 .46-5.25 29 29 0 0 0-.46-5.33z" class="cls-1"/>
        <path id="Path_4861" d="M9.75 15.02l5.75-3.27-5.75-3.27z" class="cls-1"/>
    </g>
</svg>
